<?xml version="1.0" encoding="UTF-8" standalone="no"?> 

<svg
   version="1.1"
   id="Layer_1"
   x="0px"
   y="0px"
   viewBox="0 0 621.56 205.22"
   xml:space="preserve"
   width="621.56"
   height="205.22"
   xmlns="http://www.w3.org/2000/svg"
   xmlns:svg="http://www.w3.org/2000/svg" fill="white"><defs
   id="defs22" />&#10;<rect
   x="259.09"
   y="39.610001"
   width="6.5799999"
   height="32.599998"
   id="rect1" />&#10;<g
   id="g7"
   transform="translate(-48.22,-24.82)">&#10;	<path
   d="M 318.96,86.02 V 72.43 h 6.53 v 12.99 c 0,4.47 1.51,6.54 5.33,6.54 3.78,0 5.25,-2.41 5.25,-6.97 V 72.43 h 6.54 v 24.6 h -6.54 v -3.92 c -1.07,2.67 -3.87,4.43 -7.57,4.43 -6.57,0 -9.54,-3.78 -9.54,-11.52"
   id="path1" />&#10;	<path
   d="m 366.34,84.73 c 0,-4.6 -2.58,-7.36 -6.23,-7.36 -3.61,0 -6.19,2.71 -6.19,7.36 0,4.69 2.58,7.39 6.23,7.39 3.66,0 6.19,-2.75 6.19,-7.39 m -18.92,0 c 0,-8.86 6.28,-12.77 12.73,-12.77 6.41,0 12.69,3.91 12.69,12.77 0,8.94 -6.24,12.86 -12.69,12.86 -6.45,0 -12.73,-3.92 -12.73,-12.86"
   id="path2" />&#10;	<path
   d="m 395.54,83.91 c 0,-4.43 -2.54,-7.1 -6.23,-7.1 -3.61,0 -6.19,2.67 -6.19,7.1 0,4.56 2.58,7.14 6.23,7.14 3.65,0 6.19,-2.62 6.19,-7.14 m -18.41,14.75 6.23,-1.42 c 0.86,2.23 3.05,3.65 5.89,3.65 3.95,0 6.1,-2.02 6.1,-7.01 v -2.32 c -1.2,2.93 -4.39,4.26 -7.83,4.26 -6.15,0 -10.92,-4.17 -10.92,-11.91 0,-7.7 4.73,-11.87 10.88,-11.87 3.48,0 6.67,1.33 7.87,4.34 v -3.96 h 6.54 v 20.25 c 0,9.25 -4.21,13.12 -12.69,13.12 -6.22,0.01 -10.52,-2.57 -12.07,-7.13"
   id="path3" />&#10;	<path
   d="m 407.53,64.43 h 6.53 v 11.95 c 0.95,-2.41 3.48,-4.43 7.61,-4.43 6.11,0 9.55,3.14 9.55,11.53 v 13.55 h -6.54 V 84.08 c 0,-4.69 -1.68,-6.58 -5.33,-6.58 -3.61,0 -5.29,2.24 -5.29,6.97 v 12.56 h -6.53 z"
   id="path4" />&#10;	<path
   d="m 436.3,72.43 h 6.49 v 24.6 h -6.49 z m -0.47,-6.5 c 0,-2.15 1.59,-3.31 3.74,-3.31 2.02,0 3.74,1.16 3.74,3.31 0,2.11 -1.72,3.31 -3.74,3.31 -2.15,0.01 -3.74,-1.2 -3.74,-3.31"
   id="path5" />&#10;	<path
   d="m 325.41,129.6 c 0,-4.6 -2.58,-7.35 -6.24,-7.35 -3.61,0 -6.19,2.71 -6.19,7.35 0,4.69 2.58,7.4 6.24,7.4 3.66,0 6.19,-2.75 6.19,-7.4 m -18.96,0 c 0,-8.25 4.77,-12.77 10.88,-12.77 3.48,0 6.66,1.72 7.87,4.65 v -12.17 h 6.54 v 32.55 h -6.54 v -4 c -1.2,2.84 -4.38,4.61 -7.82,4.61 -6.12,-0.01 -10.93,-4.61 -10.93,-12.87"
   id="path6" />&#10;	<path
   d="m 355.25,126.81 c -0.26,-3.27 -2.49,-5.37 -5.98,-5.37 -3.35,0 -5.72,1.89 -6.11,5.37 z m -18.75,2.79 c 0,-7.57 5.16,-12.77 12.6,-12.77 8.13,0 12.9,5.68 12.13,14.28 h -18.19 c 0.13,4 2.54,6.32 6.45,6.32 2.79,0 4.64,-1.03 5.55,-3.05 l 5.98,0.73 c -1.76,4.77 -5.76,7.26 -11.7,7.26 -7.74,0 -12.82,-5.07 -12.82,-12.77"
   id="path7" />&#10;</g>&#10;<rect
   x="317.73999"
   y="84.489998"
   width="6.5799999"
   height="32.599998"
   id="rect7" />&#10;<g
   id="g20"
   transform="translate(-48.22,-24.82)">&#10;	<path
   d="m 306.45,167.75 c 0,-7.52 5.24,-12.77 12.38,-12.77 6.58,0 10.58,2.97 11.83,8.94 l -5.72,0.91 c -0.95,-2.93 -2.88,-4.43 -5.81,-4.43 -3.66,0 -6.15,2.97 -6.15,7.35 0,4.39 2.5,7.31 6.15,7.31 2.75,0 4.9,-1.63 5.72,-4.39 l 5.76,0.9 c -1.12,5.72 -5.42,8.95 -11.78,8.95 -7.14,0 -12.38,-5.25 -12.38,-12.77"
   id="path8" />&#10;	<path
   d="m 352.42,167.75 c 0,-4.6 -2.58,-7.35 -6.24,-7.35 -3.61,0 -6.19,2.71 -6.19,7.35 0,4.69 2.58,7.4 6.24,7.4 3.65,-0.01 6.19,-2.76 6.19,-7.4 m -18.93,0 c 0,-8.86 6.28,-12.77 12.73,-12.77 6.41,0 12.69,3.91 12.69,12.77 0,8.95 -6.24,12.86 -12.69,12.86 -6.45,0 -12.73,-3.92 -12.73,-12.86"
   id="path9" />&#10;	<path
   d="m 363.55,155.45 h 6.54 v 3.96 c 1.12,-2.71 3.87,-4.43 7.61,-4.43 6.58,0 9.55,3.78 9.55,11.53 v 13.55 h -6.54 V 167.1 c 0,-4.52 -1.68,-6.58 -5.33,-6.58 -3.79,0 -5.29,2.41 -5.29,6.96 v 12.56 h -6.54 z"
   id="path10" />&#10;	<path
   d="m 393.26,170.24 v -9.85 h -3.48 v -4.94 h 3.48 v -4.43 l 6.58,-1.38 v 5.81 h 6.71 v 4.94 h -6.71 v 9.25 c 0,4.17 1.2,5.63 4.43,5.63 0.52,0 1.08,-0.09 1.98,-0.22 l 0.86,4.95 c -0.99,0.26 -2.66,0.43 -3.96,0.43 -6.71,0 -9.89,-2.7 -9.89,-10.19"
   id="path11" />&#10;	<path
   d="m 427.62,164.96 c -0.26,-3.27 -2.5,-5.38 -5.98,-5.38 -3.35,0 -5.72,1.89 -6.1,5.38 z m -18.75,2.79 c 0,-7.57 5.16,-12.77 12.6,-12.77 8.13,0 12.9,5.68 12.13,14.28 h -18.2 c 0.13,4 2.54,6.32 6.45,6.32 2.79,0 4.64,-1.03 5.55,-3.05 l 5.97,0.73 c -1.76,4.77 -5.76,7.27 -11.7,7.27 -7.73,-0.01 -12.8,-5.09 -12.8,-12.78"
   id="path12" />&#10;	<path
   d="m 438.32,155.45 h 6.54 v 4.04 c 0.86,-2.75 3.65,-4.52 7.14,-4.52 4,0 6.06,1.42 7.4,5.25 1.16,-2.97 4.04,-5.25 8.64,-5.25 6.15,0 8.69,3.53 8.69,12.08 v 12.99 h -6.54 v -12.39 c 0,-5.2 -1.29,-7.18 -4.64,-7.18 -3.44,0 -4.82,2.06 -4.82,6.97 v 12.6 h -6.54 V 167.7 c 0,-5.33 -1.2,-7.18 -4.51,-7.18 -3.4,0 -4.82,2.19 -4.82,7.4 v 12.13 h -6.54 z"
   id="path13" />&#10;	<path
   d="m 500.58,167.71 c 0,-4.65 -2.54,-7.4 -6.19,-7.4 -3.65,0 -6.24,2.75 -6.24,7.4 0,4.64 2.58,7.35 6.19,7.35 3.71,0 6.24,-2.71 6.24,-7.35 m -18.75,-12.26 h 6.54 v 4 c 1.08,-2.54 4,-4.47 7.87,-4.47 5.63,0 10.88,3.87 10.88,12.73 0,8.86 -5.29,12.73 -10.92,12.73 -3.87,0 -6.75,-2.02 -7.83,-4.56 V 188 h -6.54 z"
   id="path14" />&#10;	<path
   d="m 529.82,167.75 c 0,-4.6 -2.58,-7.35 -6.23,-7.35 -3.61,0 -6.19,2.71 -6.19,7.35 0,4.69 2.58,7.4 6.24,7.4 3.64,-0.01 6.18,-2.76 6.18,-7.4 m -18.92,0 c 0,-8.86 6.28,-12.77 12.73,-12.77 6.41,0 12.69,3.91 12.69,12.77 0,8.95 -6.24,12.86 -12.69,12.86 -6.45,0 -12.73,-3.92 -12.73,-12.86"
   id="path15" />&#10;	<path
   d="m 540.96,155.45 h 6.53 v 3.7 c 0.86,-2.28 3.4,-4.56 8.3,-4 l -0.64,6.19 c -4.9,-0.9 -7.66,1.38 -7.66,7.1 v 11.61 h -6.53 z"
   id="path16" />&#10;	<path
   d="m 575.91,167.75 c 0,-4.6 -2.58,-7.35 -6.23,-7.35 -3.61,0 -6.19,2.71 -6.19,7.35 0,4.69 2.58,7.4 6.24,7.4 3.6,-0.01 6.18,-2.76 6.18,-7.4 m -18.96,0 c 0,-8.25 4.77,-12.77 10.88,-12.77 3.48,0 6.62,1.72 7.87,4.65 v -4.17 h 6.54 V 180 h -6.54 v -4 c -1.2,2.84 -4.38,4.6 -7.83,4.6 -6.1,0.01 -10.92,-4.59 -10.92,-12.85"
   id="path17" />&#10;	<path
   d="m 587.86,155.45 h 6.53 v 3.96 c 1.12,-2.71 3.87,-4.43 7.61,-4.43 6.58,0 9.55,3.78 9.55,11.53 v 13.55 h -6.54 V 167.1 c 0,-4.52 -1.68,-6.58 -5.33,-6.58 -3.79,0 -5.29,2.41 -5.29,6.96 v 12.56 h -6.53 z"
   id="path18" />&#10;	<path
   d="m 634.52,164.96 c -0.26,-3.27 -2.49,-5.38 -5.98,-5.38 -3.35,0 -5.72,1.89 -6.11,5.38 z m -18.75,2.79 c 0,-7.57 5.16,-12.77 12.6,-12.77 8.13,0 12.9,5.68 12.13,14.28 h -18.19 c 0.13,4 2.54,6.32 6.45,6.32 2.8,0 4.65,-1.03 5.55,-3.05 l 5.98,0.73 c -1.77,4.77 -5.76,7.27 -11.7,7.27 -7.75,-0.01 -12.82,-5.09 -12.82,-12.78"
   id="path19" />&#10;	<path
   d="m 663.28,167.75 c 0,-4.6 -2.58,-7.35 -6.23,-7.35 -3.61,0 -6.19,2.71 -6.19,7.35 0,4.69 2.58,7.4 6.24,7.4 3.65,-0.01 6.18,-2.76 6.18,-7.4 m -18.92,0 c 0,-8.86 6.28,-12.77 12.73,-12.77 6.41,0 12.69,3.91 12.69,12.77 0,8.95 -6.24,12.86 -12.69,12.86 -6.45,0 -12.73,-3.92 -12.73,-12.86"
   id="path20" />&#10;</g>&#10;<polygon
   points="82.64,24.82 82.64,230.04 48.22,201.13 48.22,24.82 "
   id="polygon20"
   transform="translate(-48.22,-24.82)" />&#10;<polygon
   points="255.41,24.96 255.41,230.04 220.99,200.72 220.99,54 "
   id="polygon21"
   transform="translate(-48.22,-24.82)" />&#10;<polygon
   points="169.06,54 169.06,200.72 134.64,230.04 134.64,24.96 "
   id="polygon22"
   transform="translate(-48.22,-24.82)" />&#10;</svg>
